<svg
  width="240"
  height="240"
  viewBox="0 0 270 265"
  class="css-1j8o68f"
>
  <defs id="SvgjsDefs1112"></defs>
  <g
    id="SvgjsG1113"
    featurekey="rootContainer"
    transform="matrix(2.5809711372993354,0,0,2.5809711372993354,0.030434266996216174,0)"
    fill="#000"
  >
    <path
      xmlns="http://www.w3.org/2000/svg"
      d="M50.8 102h5.8l1.8-.2 1.7-.3h1.7l1.9-.3 1.8-.4.9-.2.9-.3 1.7-.6 2-.8a54 54 0 0 0 15.3-9.4l1.4-1.2.7-.5.6-.4 1-.5.8-.5 1.5-1.2 1.5-1.5.8-1 .9-1.1a50.9 50.9 0 0 0 3.9-5.8 34.8 34.8 0 0 0 1.6-3.1l.2-.4.2-.4.3-.8.3-.9.2-.4v-.4l.4-1.2.2-.6v-.3h.1v-.2l.7-2.5c.2-.9.4-1.7.5-2.6a25.4 25.4 0 0 0 .2-2.6v-3.1c0-.3 0-1 .1-1.5v-2.1a21.3 21.3 0 0 0 .2-2.6v-2.6c0-.9-.1-1.1-.1-1.6l-.2-1.5c-.1-1-.4-2-.5-3s-.2-1-.3-1.4l-.3-1.4-.3-1.4v-1.7l-.4-1.4-.2-.7-.2-.7-.4-1.4-.5-1.4-.4-1-.5-1-1-2.1a40.7 40.7 0 0 1-1.8-4.1 3.6 3.6 0 0 0-.8-1.2l-.7-.6-.2-.3-.3-.5a25.7 25.7 0 0 0-1.6-2.3l-.8-1.1-.9-1.1-.4-.5-.2-.3-.2-.2h-.1l-.9-1-.5-.5-.5-.5-.9-1.1-1.1-1a47.9 47.9 0 0 0-3.8-3l-.1-.5-1.3-.9A29 29 0 0 0 72 .4h-3.1a.8.8 0 0 0-.6 1.2A3.9 3.9 0 0 0 69.9 3l-.6.3-.4-.2a.9.9 0 0 0 0-.3c-.1-.5-.2-.9-1.3-1.3L65.3.7l-.6-.2h-.6L62.8 0l-1.3 1.2A48.5 48.5 0 0 0 39 2.4 31.1 31.1 0 0 0 31.4 4h-.5l-.5.2-1 .4-1 .5-.9.6-1.8 1.5-.8.6-.7.7c-1 .9-1.9 1.9-2.8 2.8L20 12.8l-1.4 1.5-.5.5-.5.5-1.1 1a55.1 55.1 0 0 0-7 7l.2-.5.6-1.1.6-1.1.6-1.1.6-1.2.6-1.2 1.2-2.4.4-.8.3-.6a1 1 0 0 0 0-.8 3.7 3.7 0 0 1-.2-1.2 17.1 17.1 0 0 0-2.1 1.1l-1.5 1.1-.8.6-.7.7-.8 1-.5 1-.5 1-.2.5-.3.5-.3.6-.4.8-.4.8-.7 1.7-.5 1.3-.5 1.3v.7l-.2.6-.3 1.3v.2h-.4v.3l-.2.7-.3 1.4-.2.7-.2.7-.4 1.7-.4 1.9-.2.9v2.8l-.6 1.9a38.3 38.3 0 0 0-.1 4.1 52.7 52.7 0 0 0-.7 8.7 5.2 5.2 0 0 0 0 .7c.5 3 .8 6 1.5 9l.4 1.8.5 1.8a18.3 18.3 0 0 0 .6 1.7l.4.8.4.8.9 1.7.5.8.5.8.5.8.5.8L7.8 77c1.4 2 2.9 4 4.5 5.9a35.6 35.6 0 0 0 2.6 2.7l.7.6.3.3.4.3 1.5 1.1 1 1a34 34 0 0 0 8.2 6.2l1.4.7 1.5.7.7.3.8.3 1.5.6.9.4.8.4.8.4 1 .4 1.9.7 1.9.6 1.6.4 1.6.4 1.6.3h5.7z"
    ></path>
  </g>
  <g
    id="SvgjsG1114"
    featurekey="symbolFeature-0"
    transform="matrix(1.2500669097951052,0,0,1.2500669097951052,93.74565101233775,63.87488619374049)"
    fill="#fff"
  >
    <g xmlns="http://www.w3.org/2000/svg">
      <path
        d="M3.6,14.8l-1.5,1.7c1.5,1.2,3.2,1.9,5,2.1v1.4h1.3v-1.4c2.5-0.1,4.6-1.4,4.6-3.8c0-2.6-2.1-3.4-4.6-3.9H8.4V7.2   c1.1,0.1,2,0.5,2.9,1.1l1.3-1.7c-1.3-0.8-2.8-1.3-4.3-1.4v-1H7.1v0.9C4.7,5.2,2.6,6.6,2.6,9c0,2.5,2,3.3,4.5,3.8v3.7   C5.9,16.3,4.7,15.7,3.6,14.8z M8.4,13.1c1.1,0.3,2.1,0.7,2.1,1.8c0,1-1.1,1.5-2.1,1.6V13.1z M5.1,8.7c0-1,1-1.5,2-1.6v3.3   C6,10.1,5.1,9.8,5.1,8.7z"
      ></path>
      <path
        d="M2.5,35.5l11-6.2c0.2-0.1,0.3-0.2,0.4-0.3l15-23.7L45.6,17c0.4,0.3,0.9,0.2,1.3-0.1L59.2,5.1v2.4c0,0.5,0.4,1,1,1   c0.5,0,1-0.5,1-1V2.7c0-0.5-0.5-1-1-1h-4.8c-0.5,0-1,0.4-1,1c0,0.5,0.5,1,1,1h2.4L46.1,14.9L29.2,3c-0.5-0.3-1.1-0.2-1.4,0.3   L12.3,27.7L1.5,33.8C1,34,0.9,34.7,1.1,35.1C1.4,35.6,2,35.8,2.5,35.5z"
      ></path>
      <path
        d="M64,62.3h-0.1V17.7c0-0.6-0.4-1-1-1h-6.2c-0.5,0-1,0.4-1,1v44.6h-7.4V32.2c0-0.5-0.4-1-1-1h-6.2c-0.5,0-1,0.4-1,1v30.1   h-7.4V17.7c0-0.6-0.4-1-1-1h-6.2c-0.6,0-1,0.4-1,1v44.6h-7.4V38.7c0-0.5-0.4-1-1-1H10c-0.6,0-1,0.5-1,1v23.6H2.8c-0.6,0-1,0.4-1,1   c0,0.5,0.4,1,1,1H64c0.6,0,1-0.5,1-1C65,62.7,64.6,62.3,64,62.3z"
      ></path>
    </g>
  </g>
  <g
    id="SvgjsG1115"
    featurekey="nameFeature-0"
    transform="matrix(1.1008704277555883,0,0,1.1008704277555883,33.23860676440834,153.30654914261166)"
    fill="#fff"
  >
    <path
      d="M16.04 40.36 c-0.2 0.16 -0.44 0.2 -0.64 0.28 c-0.44 0.12 -0.92 0.2 -1.4 0.28 l-0.28 0 c-0.44 -0.04 -0.6 0 -0.72 -0.64 c-0.04 -0.2 -0.08 -0.4 -0.12 -0.64 c0 -0.28 -0.08 -0.56 -0.16 -0.84 c-0.24 -0.56 -0.36 -1.16 -0.52 -1.72 c-0.04 -0.16 -0.04 -0.28 -0.04 -0.44 c-0.04 -0.32 -0.08 -0.6 -0.12 -0.92 c-0.08 -0.48 -0.16 -0.44 -0.48 -0.2 c-0.24 0.16 -0.44 0.4 -0.6 0.6 s-0.32 0.36 -0.56 0.44 c-0.08 0.04 -0.12 0.08 -0.2 0.12 c-0.36 0.28 -0.76 0.36 -1.2 0.32 c-0.36 -0.04 -0.68 -0.04 -1 -0.04 l-0.24 0 c-0.48 -0.12 -0.92 -0.2 -1.4 -0.16 c-0.08 0 -0.16 -0.04 -0.24 -0.04 c-0.36 -0.16 -0.72 -0.24 -1.08 -0.32 c-0.12 -0.04 -0.28 -0.08 -0.32 -0.16 c-0.2 -0.24 -0.48 -0.36 -0.76 -0.44 c-0.28 -0.12 -0.52 -0.28 -0.72 -0.56 c-0.04 -0.08 -0.12 -0.2 -0.2 -0.28 c-0.36 -0.2 -0.48 -0.52 -0.52 -0.88 c0 -0.24 -0.08 -0.44 -0.16 -0.64 c-0.16 -0.4 -0.32 -0.84 -0.44 -1.28 c-0.28 -0.8 -0.32 -1.6 -0.32 -2.44 c0.04 -1.68 0.08 -3.36 0.08 -5.04 l0 -0.64 c0 -0.88 0.04 -1.72 0.16 -2.6 c0.04 -0.56 0.12 -1.12 0 -1.72 c-0.04 -0.16 -0.04 -0.32 0 -0.48 c0.04 -0.4 0.08 -0.8 0.08 -1.16 l0 -0.28 c0.2 -0.68 0.16 -1.36 0.4 -2 c0.08 -0.28 0.12 -0.56 0.16 -0.84 c0.08 -0.52 0.2 -1 0.32 -1.48 c0.08 -0.24 0.12 -0.52 0.16 -0.8 c0.04 -0.36 0.12 -0.68 0.4 -0.96 c0.08 -0.08 0.16 -0.2 0.2 -0.32 c0.08 -0.24 0.28 -0.44 0.48 -0.56 c0.36 -0.24 0.72 -0.52 1.08 -0.76 c0.12 -0.08 0.24 -0.12 0.4 -0.12 c0.24 0 0.48 -0.04 0.72 -0.12 l0.04 0 c0.84 -0.04 1.68 -0.2 2.52 -0.16 c0.36 0 0.68 0.08 1 0.12 c0.08 0 0.16 0.04 0.2 0.08 c0.2 0.08 0.4 0.2 0.6 0.28 c0.4 0.2 0.76 0.4 1 0.8 c0.08 0.16 0.24 0.28 0.4 0.4 c0.12 0.12 0.24 0.24 0.28 0.4 c0.04 0.32 0.2 0.6 0.32 0.88 c0.2 0.32 0.28 0.64 0.32 1.04 l0 0.2 c0.16 0.68 0.12 1.4 0.08 2.08 c-0.04 0.44 0 0.88 0 1.28 c-0.04 0.24 -0.04 0.44 -0.08 0.68 l0 0.48 c0 0.96 -0.12 1.92 -0.32 2.88 c0 0.08 -0.04 0.16 -0.08 0.28 c-0.08 0.24 -0.24 0.36 -0.52 0.4 c-0.48 0.08 -0.96 0.12 -1.44 0 c-0.16 -0.04 -0.36 -0.04 -0.56 -0.08 c-0.12 0 -0.28 -0.08 -0.4 -0.12 c-0.08 -0.04 -0.16 -0.12 -0.16 -0.24 c0 -0.2 0 -0.36 0.04 -0.56 c0.08 -0.72 0.2 -1.44 0.28 -2.16 c0.08 -1.16 0.12 -2.32 0.12 -3.52 c0 -0.2 0 -0.44 -0.04 -0.64 c-0.04 -0.52 -0.28 -0.96 -0.56 -1.4 c-0.2 -0.28 -0.48 -0.44 -0.88 -0.44 c-0.52 0 -1.04 0.04 -1.56 0.12 c-0.16 0.04 -0.32 0.12 -0.44 0.24 c-0.32 0.36 -0.56 0.72 -0.64 1.2 c-0.08 0.4 -0.2 0.8 -0.2 1.2 c-0.04 0.12 -0.04 0.24 -0.08 0.36 c-0.2 0.68 -0.2 1.44 -0.4 2.12 c0 0.72 -0.12 1.44 -0.12 2.16 c0 0.84 0 1.68 -0.16 2.52 c-0.04 0.28 -0.12 0.56 -0.04 0.84 c0.04 0.12 0 0.2 0 0.32 c0.04 0.28 0 0.6 -0.04 0.92 s0.04 0.6 0.04 0.92 c0.04 0.16 0 0.28 0 0.44 c-0.04 0.12 -0.04 0.24 -0.04 0.36 c-0.04 1.12 -0.04 2.2 -0.04 3.32 c-0.04 0.64 0.08 1.24 0.32 1.84 c0.12 0.32 0.24 0.68 0.36 1 c0.12 0.24 0.24 0.4 0.48 0.52 c0.28 0.16 0.56 0.28 0.88 0.32 c0.2 0.04 0.36 0.08 0.56 0.08 c0.48 0.04 0.92 0.16 1.36 0.08 c0.2 -0.08 0.32 -0.24 0.44 -0.4 c0.12 -0.12 0.2 -0.32 0.2 -0.52 c0.08 -1 0.16 -2.04 0.12 -3.08 c0 -0.4 -0.08 -0.8 -0.16 -1.2 c-0.04 -0.16 -0.16 -0.28 -0.32 -0.28 c-0.56 -0.08 -1.16 -0.28 -1.76 -0.28 c-0.28 0.04 -0.52 -0.12 -0.76 -0.2 c-0.08 -0.04 -0.16 -0.12 -0.2 -0.2 c-0.2 -0.64 -0.24 -1.32 -0.04 -2 c0.04 -0.24 0.2 -0.4 0.48 -0.48 c0.04 0 0.12 -0.08 0.2 -0.04 c0.28 0 0.52 -0.12 0.76 -0.2 c0.28 -0.04 0.52 0.12 0.76 0.16 l0.6 0 c0.24 0 0.48 0 0.72 0.08 l0.2 0 c0.44 -0.12 0.84 0 1.24 0.16 c0.12 0.04 0.2 0.04 0.32 0.04 c0.16 0.04 0.32 0.04 0.48 0.08 c0.12 0.04 0.24 0.04 0.36 0 c0.2 -0.12 0.44 -0.12 0.72 -0.16 c0.16 0.12 0.36 0.24 0.52 0.36 c0.12 0.28 0.2 0.52 0.32 0.8 c0.08 0.24 0.16 0.48 0.2 0.76 c0 0.08 0 0.16 0.04 0.2 c0.24 0.56 0.16 1.12 0.08 1.64 c-0.12 0.64 -0.12 1.24 -0.04 1.88 c0.08 0.68 0.2 1.36 0.4 2.04 c0.28 0.96 0.44 1.96 0.64 2.96 c0.04 0.16 0.04 0.28 0.04 0.44 c0.04 0.24 0.08 0.48 0.24 0.68 c0.16 0.24 0.24 0.52 0.28 0.8 c0.04 0.32 0.12 0.6 0.2 0.92 c0.08 0.24 0.12 0.52 0.12 0.76 l0 0.92 z M18.366000000000003 25.08 l0 -11.2 c0 -0.36 -0.04 -0.72 0.04 -1.08 c0.04 -0.16 0 -0.32 0 -0.48 l0 -0.6 c0.04 -0.16 0.12 -0.24 0.28 -0.28 c0.08 -0.04 0.16 -0.04 0.24 -0.08 c0.12 0 0.24 -0.04 0.32 -0.12 c0.16 -0.08 0.32 -0.12 0.52 -0.16 l0.48 0 c0.28 0 0.6 0 0.92 -0.08 c0.28 -0.04 0.52 -0.04 0.8 0.04 c0.36 0.08 0.72 0.08 1.08 0 c0.24 -0.04 0.52 -0.08 0.76 0 c0.16 0.04 0.36 0 0.52 0 c0.32 -0.04 0.6 -0.08 0.88 0 c0.04 0.04 0.08 0.04 0.12 0 c0.48 -0.12 0.88 0.12 1.36 0.16 c0.24 0.04 0.52 0.12 0.72 0.32 c0.04 0.08 0.12 0.12 0.2 0.12 c0.16 0.04 0.28 0.12 0.36 0.2 c0.2 0.12 0.4 0.28 0.56 0.4 c0.12 0.12 0.24 0.28 0.4 0.36 c0.4 0.28 0.6 0.72 0.92 1.08 c0.2 0.2 0.36 0.4 0.36 0.72 c0 0.08 0.08 0.16 0.12 0.24 c0.04 0.04 0.08 0.12 0.08 0.16 c0.04 0.48 0.28 0.88 0.28 1.32 c0.04 0.56 0.24 1.12 0.44 1.64 c0.08 0.32 0.16 0.6 0.2 0.92 c0.08 0.4 0.12 0.8 0.2 1.2 c0.04 0.08 0.04 0.12 0.04 0.2 c-0.04 0.6 0.08 1.16 -0.12 1.76 c-0.08 0.28 -0.04 0.56 -0.04 0.88 c0 0.16 -0.04 0.32 -0.12 0.44 c-0.2 0.28 -0.28 0.64 -0.2 0.96 c0.04 0.32 0 0.6 -0.12 0.88 c-0.16 0.36 -0.2 0.72 -0.28 1.12 c-0.04 0.16 -0.08 0.32 -0.2 0.48 c-0.04 0.12 -0.08 0.2 -0.12 0.32 c-0.08 0.2 -0.2 0.36 -0.32 0.52 c-0.08 0.08 -0.16 0.2 -0.24 0.32 c-0.04 0.12 -0.08 0.24 0 0.32 c0.12 0.24 0.24 0.44 0.4 0.64 c0.32 0.52 0.68 1.08 1 1.6 c0.4 0.76 0.8 1.52 1.04 2.36 c0.16 0.4 0.28 0.76 0.52 1.08 c0.16 0.2 0.24 0.44 0.32 0.68 c0.2 0.44 0.36 0.88 0.64 1.28 c0.12 0.16 0.16 0.32 0.2 0.48 c0.08 0.28 0.16 0.48 0.36 0.64 c0.16 0.12 0.24 0.28 0.28 0.48 c0 0.16 0.08 0.36 0.16 0.52 s0.04 0.28 -0.08 0.4 c-0.12 0.16 -0.24 0.28 -0.4 0.36 c-0.4 0.28 -0.8 0.52 -1.2 0.76 c-0.2 0.12 -0.44 0.2 -0.64 0.24 c-0.12 0.08 -0.28 0.04 -0.36 -0.08 c-0.2 -0.16 -0.4 -0.36 -0.56 -0.6 c-0.4 -0.64 -0.8 -1.32 -1.04 -2.04 c-0.24 -0.68 -0.52 -1.28 -0.84 -1.92 c-0.2 -0.44 -0.4 -0.92 -0.56 -1.4 c-0.16 -0.44 -0.36 -0.92 -0.6 -1.36 l-1.2 -2.04 l-0.12 -0.24 c-0.12 -0.12 -0.2 -0.16 -0.36 -0.12 c-0.12 0.04 -0.24 0.08 -0.32 0.12 c-0.36 0.16 -0.76 0.24 -1.12 0.24 c-0.28 0 -0.56 -0.04 -0.8 0.08 l-0.36 0 c-0.24 0.04 -0.48 -0.16 -0.72 -0.08 s-0.44 0.04 -0.68 0 c-0.16 -0.04 -0.36 -0.04 -0.52 -0.08 c-0.56 0 -0.6 0.04 -0.6 0.56 l0 5.08 c0 0.72 -0.04 1.4 -0.16 2.12 c-0.04 0.36 -0.24 0.68 -0.36 1 c-0.04 0.08 -0.12 0.12 -0.2 0.16 c-0.16 0.04 -0.32 0.04 -0.44 0.16 c-0.04 0.04 -0.12 0.04 -0.2 0.04 l-0.88 0 s-0.48 -0.12 -0.56 -0.4 c-0.28 -0.52 -0.4 -1.12 -0.44 -1.68 c-0.04 -0.36 -0.04 -0.68 -0.04 -1.04 l0 -11 l0 0 z M21.646 20.56 l0 5.36 l0 0.6 c0 0.12 0.08 0.2 0.2 0.24 c0.28 0.04 0.56 0.08 0.88 0.04 c0.52 0.08 1.04 0.04 1.56 0.04 c0.28 0.04 0.52 0 0.8 -0.04 c0.64 -0.12 1.16 -0.4 1.64 -0.76 c0.24 -0.2 0.44 -0.4 0.56 -0.68 c0.16 -0.44 0.32 -0.84 0.4 -1.28 c0.04 -0.56 0.12 -1.08 0.24 -1.64 c0.04 -0.24 0.12 -0.48 0.16 -0.72 c0.08 -0.56 0.04 -1.12 0.04 -1.68 c0 -0.08 -0.04 -0.12 -0.04 -0.2 c-0.28 -1.04 -0.44 -2.12 -0.76 -3.16 c-0.32 -1.16 -0.16 -0.96 -1 -1.68 c-0.08 -0.08 -0.16 -0.12 -0.2 -0.2 c-0.24 -0.2 -0.48 -0.32 -0.8 -0.36 c-0.4 -0.08 -0.84 -0.08 -1.28 -0.12 c-0.56 0.08 -1.16 0 -1.76 0.04 l-0.32 0 c-0.24 0 -0.32 0.08 -0.32 0.36 l0 0.52 l0 5.32 z M41.492000000000004 39.72 l-0.36 -0.12 s-0.24 -0.04 -0.32 0 s-0.2 0.04 -0.28 0.04 c-0.6 -0.08 -1.32 -0.24 -1.8 -0.8 c-0.04 0 -0.08 -0.04 -0.12 -0.08 c-0.64 -0.4 -1.04 -1 -1.6 -1.52 c-0.2 -0.16 -0.32 -0.36 -0.44 -0.56 c-0.08 -0.16 -0.16 -0.36 -0.2 -0.52 c-0.12 -0.28 -0.2 -0.56 -0.2 -0.84 c0.04 -0.2 -0.04 -0.4 -0.08 -0.6 c-0.08 -0.28 -0.12 -0.56 -0.2 -0.84 c-0.2 -0.68 -0.28 -1.36 -0.44 -2.04 c-0.08 -0.36 -0.08 -0.72 -0.08 -1.08 c0 -1.24 -0.04 -2.48 -0.04 -3.72 s0.04 -2.48 0.04 -3.76 l0 -1.8 c0.04 -0.28 0 -0.56 -0.16 -0.8 c-0.04 -0.08 -0.04 -0.2 -0.04 -0.32 c0.04 -0.08 0.04 -0.12 0.04 -0.2 c0.08 -0.44 0.08 -0.88 -0.04 -1.32 c-0.04 -0.2 -0.04 -0.4 0 -0.6 c0.08 -0.36 0.12 -0.68 0 -1 l0 -0.28 c0.04 -0.12 0.04 -0.2 0.08 -0.32 c0.12 -0.28 0.16 -0.6 0.16 -0.92 c0 -0.24 0.04 -0.48 0.16 -0.72 c0.2 -0.48 0.52 -0.88 0.72 -1.36 c0.04 -0.08 0.08 -0.16 0.16 -0.2 c0.4 -0.44 0.8 -0.88 1.28 -1.2 c0.32 -0.2 0.6 -0.44 0.92 -0.68 c0.16 -0.16 0.36 -0.24 0.6 -0.28 c0.32 -0.08 0.6 -0.12 0.92 -0.2 c0.16 -0.08 0.32 -0.08 0.44 -0.08 c0.16 -0.04 0.32 -0.04 0.48 -0.08 c0.12 -0.04 0.28 -0.04 0.4 0.04 c0.04 0.04 0.12 0.04 0.16 0.08 c0.2 0.12 0.44 0.16 0.68 0.16 l0.4 0 s0.28 0.04 0.4 0.16 c0.04 0.04 0.08 0.08 0.12 0.08 c0.12 0.16 0.28 0.24 0.44 0.28 c0.44 0.16 0.72 0.44 1 0.8 c0.16 0.24 0.36 0.52 0.6 0.72 c0.08 0.08 0.16 0.2 0.2 0.32 c0.12 0.28 0.24 0.52 0.32 0.84 c0.04 0.2 0.16 0.4 0.24 0.6 c0.12 0.24 0.2 0.52 0.24 0.76 c0 0.36 0.08 0.72 0.16 1.08 c0.08 0.32 0.12 0.68 0.12 1 c-0.04 0.32 0 0.64 0.12 0.92 c0.04 0.12 0.04 0.24 0.04 0.32 c0.04 0.2 0.04 0.4 -0.08 0.52 c-0.08 0.12 -0.08 0.28 -0.08 0.4 l0 0.72 l0 13.24 c0.04 0.6 -0.12 1.2 -0.36 1.76 l-0.84 1.92 c-0.08 0.12 -0.16 0.2 -0.24 0.32 c-0.36 0.52 -0.92 0.84 -1.4 1.2 c-0.2 0.16 -0.4 0.24 -0.64 0.28 c-0.12 0 -0.28 0.04 -0.4 0.04 c-0.4 0 -0.8 0.12 -1.2 0.24 z M38.492000000000004 26.52 l0 4.48 l0 0.68 c0 0.12 0 0.24 0.04 0.32 c0.16 0.28 0.2 0.56 0.24 0.84 c0.04 0.12 0.08 0.28 0.12 0.4 c0.16 0.4 0.32 0.76 0.48 1.16 c0.08 0.16 0.16 0.36 0.24 0.48 c0.28 0.32 0.56 0.64 0.8 0.92 c0.32 0.36 0.76 0.48 1.24 0.44 c0.36 -0.04 0.64 -0.16 0.8 -0.52 c0.04 -0.08 0.04 -0.16 0.08 -0.24 c0 -0.36 0.12 -0.72 0.24 -1.08 c0.08 -0.28 0.16 -0.56 0.16 -0.84 c0 -0.2 0.08 -0.4 0.12 -0.6 c0.24 -0.56 0.32 -1.16 0.36 -1.76 c0 -0.44 0 -0.84 0.04 -1.28 c0 -0.16 0 -0.32 -0.08 -0.48 c-0.04 -0.08 -0.04 -0.2 0 -0.32 c0.12 -0.52 0.08 -1.04 0.04 -1.56 c-0.08 -0.76 -0.04 -1.56 -0.04 -2.32 c0 -1.48 0.04 -2.92 0.04 -4.4 c0.04 -0.24 0.04 -0.44 -0.04 -0.68 c-0.04 -0.08 -0.04 -0.2 -0.04 -0.32 c-0.04 -0.56 -0.12 -1.12 -0.24 -1.68 s-0.24 -1.12 -0.24 -1.72 c0 -0.28 -0.12 -0.56 -0.24 -0.84 c-0.08 -0.16 -0.2 -0.28 -0.28 -0.44 c-0.08 -0.2 -0.24 -0.32 -0.44 -0.4 c-0.08 -0.08 -0.2 -0.12 -0.28 -0.16 c-0.6 -0.2 -1.12 -0.16 -1.6 0.24 c-0.28 0.24 -0.52 0.48 -0.76 0.76 c-0.16 0.12 -0.24 0.32 -0.28 0.52 c-0.08 0.4 -0.16 0.84 -0.24 1.24 l0 0.2 c0 0.2 -0.04 0.4 0 0.6 c0 0.24 -0.16 0.44 -0.2 0.68 l0 0.04 c-0.04 0.52 -0.12 1.04 -0.16 1.56 c-0.04 0.36 -0.04 0.76 0.04 1.12 c0.04 0.12 0.04 0.24 0.04 0.36 c0 1.56 -0.04 3.16 0.04 4.6 z M65.53800000000001 38.68 c-0.56 0.44 -1.2 0.68 -1.84 0.8 c-0.28 0.04 -0.52 0.08 -0.84 -0.04 c-0.16 -0.16 -0.24 -0.4 -0.36 -0.68 c-0.2 -0.6 -0.44 -1.24 -0.64 -1.88 c-0.08 -0.2 -0.24 -0.4 -0.32 -0.6 c-0.08 -0.08 -0.16 -0.16 -0.2 -0.28 c-0.2 -0.52 -0.44 -1.04 -0.68 -1.6 c-0.16 -0.28 -0.28 -0.56 -0.44 -0.8 c-0.2 -0.28 -0.36 -0.56 -0.48 -0.88 c-0.08 -0.16 -0.12 -0.32 -0.2 -0.44 c-0.28 -0.4 -0.44 -0.88 -0.56 -1.36 c0 -0.08 -0.04 -0.2 -0.04 -0.28 c-0.24 -0.48 -0.32 -1 -0.44 -1.52 c-0.12 -0.68 -0.32 -1.32 -0.68 -1.92 c-0.24 -0.4 -0.48 -0.84 -0.72 -1.28 l-0.04 -0.04 c-0.04 0.04 -0.08 0.04 -0.12 0.08 c-0.08 0.24 -0.16 0.48 -0.2 0.76 c-0.2 0.72 -0.4 1.44 -0.64 2.12 c-0.08 0.24 -0.12 0.52 -0.16 0.8 c-0.04 0.16 -0.04 0.28 -0.08 0.44 c-0.24 0.8 -0.4 1.6 -0.72 2.4 c-0.24 0.52 -0.32 1.12 -0.4 1.68 c0 0.4 -0.08 0.76 -0.16 1.12 c-0.16 0.64 -0.32 1.32 -0.56 1.92 c-0.2 0.52 -0.32 1.08 -0.4 1.64 c0 0.24 -0.04 0.44 -0.12 0.68 c-0.04 0.16 -0.16 0.24 -0.32 0.24 c-0.6 0 -1.2 0 -1.8 -0.04 c-0.4 0 -0.8 -0.08 -1.2 -0.12 c-0.28 0 -0.44 -0.12 -0.48 -0.36 c-0.12 -0.36 -0.2 -0.68 -0.2 -1 c0 -0.28 0 -0.56 -0.08 -0.8 c-0.08 -0.4 -0.08 -0.8 -0.08 -1.2 c0 -0.16 0 -0.32 -0.04 -0.48 c-0.04 -0.28 -0.04 -0.56 -0.04 -0.88 l0 -2.96 c0 -0.56 0.04 -1.16 -0.04 -1.72 l0 -0.48 l0 -17.68 c0 -0.2 0 -0.44 0.04 -0.64 c0 -0.12 0.08 -0.24 0.2 -0.24 c0.68 -0.16 1.36 -0.2 2.08 -0.16 c0.24 0 0.48 0.08 0.68 0.16 c0.08 0.04 0.12 0.12 0.16 0.2 s0.04 0.2 0.04 0.28 c0 0.52 0.04 1.04 0.04 1.52 c0 2.04 -0.04 4.04 -0.04 6.08 c0 2.68 0 5.36 0.04 8.04 l0 2.04 l0 0.4 c0.04 -0.04 0.08 -0.04 0.12 -0.08 c0.08 -0.28 0.16 -0.6 0.24 -0.88 c0.12 -0.48 0.28 -0.96 0.44 -1.4 c0.28 -0.72 0.48 -1.4 0.68 -2.12 c0.24 -0.8 0.48 -1.64 0.88 -2.4 c0.04 -0.16 0.16 -0.32 0.24 -0.48 c0.24 -0.32 0.48 -0.64 0.68 -1 c0.08 -0.12 0.24 -0.24 0.36 -0.36 c0.04 -0.04 0.12 -0.08 0.2 -0.08 c0.36 0.04 0.76 -0.04 1.12 0 c0.12 0 0.24 0 0.36 -0.04 c0.2 -0.08 0.36 -0.04 0.56 -0.04 c0.24 0 0.4 0.08 0.6 0.2 c0.16 0.12 0.24 0.24 0.24 0.44 c0 0.16 0 0.32 -0.04 0.48 c0 0.28 0.04 0.52 0.16 0.76 l0.6 1.44 l0.24 0.48 c0.8 1.36 1.36 2.8 1.72 4.36 c0.12 0.56 0.32 1.16 0.56 1.72 c0.04 0.08 0.08 0.2 0.12 0.28 c0.04 0.04 0.08 0.04 0.12 0.04 c0.04 -0.04 0.04 -0.04 0.04 -0.08 c0.08 -0.44 0.04 -0.88 0 -1.32 c0 -0.16 -0.04 -0.36 -0.04 -0.52 c0 -0.64 0 -1.28 -0.08 -1.88 c-0.04 -0.24 -0.04 -0.52 -0.04 -0.76 c-0.04 -0.84 -0.12 -1.68 -0.2 -2.52 l0 -0.2 c-0.04 -0.88 -0.04 -1.76 -0.08 -2.64 c-0.08 -3.12 0 -6.24 -0.04 -9.4 l0 -0.52 c0.04 -0.08 0.08 -0.12 0.08 -0.16 c0.72 -0.2 1.4 -0.2 2.08 -0.2 c0.12 0 0.24 0 0.36 0.04 c0.56 0.12 0.56 0.12 0.6 0.68 c0 0.12 0.04 0.24 0.04 0.4 c-0.04 0.52 0.08 1.08 0.12 1.6 c0.08 0.2 0.04 0.4 0.04 0.6 c-0.04 0.16 -0.04 0.36 0 0.52 c0.08 0.44 0.04 0.84 0.04 1.28 c0.04 2.48 0.04 4.92 0.04 7.4 c0 0.16 0 0.32 0.04 0.48 c0.04 0.48 0.04 1 0.04 1.52 l0 11.36 c0 0.68 -0.08 1.32 -0.16 1.96 z M83.224 21.12 c-0.16 0.16 -0.2 0.32 -0.24 0.48 c-0.16 0.8 -0.44 1.6 -0.72 2.36 c-0.24 0.64 -0.4 1.32 -0.6 1.96 c-0.16 0.44 -0.32 0.92 -0.52 1.4 c-0.12 0.32 -0.28 0.64 -0.48 0.92 c-0.2 0.24 -0.32 0.48 -0.52 0.72 c-0.08 0.12 -0.2 0.24 -0.28 0.36 c-0.08 0.08 -0.2 0.12 -0.32 0.12 c-0.24 0 -0.44 -0.04 -0.68 0.04 c-0.04 0.04 -0.12 0 -0.2 0 c-0.12 -0.04 -0.28 -0.04 -0.44 0 c-0.24 0.08 -0.44 0.04 -0.68 0.04 c-0.08 0 -0.12 -0.04 -0.2 -0.04 c-0.36 -0.2 -0.48 -0.28 -0.48 -0.72 l0 -0.08 c0.12 -0.4 0 -0.76 -0.16 -1.12 c-0.08 -0.12 -0.12 -0.24 -0.2 -0.36 c-0.24 -0.64 -0.52 -1.24 -0.84 -1.8 c-0.52 -0.96 -0.88 -1.92 -1.16 -2.96 c-0.08 -0.36 -0.2 -0.76 -0.28 -1.12 c-0.12 -0.44 -0.28 -0.88 -0.48 -1.32 c-0.04 -0.04 -0.08 -0.04 -0.12 -0.04 c-0.04 -0.04 -0.08 0 -0.08 0.08 l0 0.32 c0 0.76 0 1.52 0.08 2.28 c0.04 0.64 0.08 1.24 0.12 1.84 c0.08 0.72 0.04 1.44 0.16 2.16 l0 0.12 c0.04 0.76 0.04 1.52 0.04 2.28 c0.04 0.24 0.04 0.44 0.04 0.68 c0.04 0.2 0.04 0.4 0.04 0.6 l0 7.76 c0 0.2 0 0.36 -0.04 0.56 c0 0.08 -0.08 0.16 -0.16 0.2 c-0.64 0.12 -1.28 0.16 -1.92 0.16 c-0.08 0 -0.12 0 -0.16 -0.04 c-0.64 -0.16 -0.64 -0.04 -0.72 -0.76 l0 -0.4 c-0.04 -0.32 -0.04 -0.68 -0.08 -1 c-0.04 -0.48 -0.08 -0.96 -0.08 -1.4 l0 -1.36 c-0.04 -0.72 0 -1.44 -0.04 -2.16 l0 -1.48 c-0.04 -0.2 -0.04 -0.36 -0.04 -0.56 l0 -2.48 l0 -0.4 c-0.08 -0.72 -0.04 -1.44 -0.04 -2.16 l0 -10.2 c-0.04 -0.64 0.04 -1.28 0.12 -1.92 c0.04 -0.12 0.16 -0.12 0.24 -0.16 c0.44 -0.32 0.96 -0.44 1.48 -0.6 c0.24 -0.04 0.44 -0.04 0.68 -0.04 c0.08 0 0.16 0.08 0.2 0.16 c0.16 0.24 0.24 0.52 0.36 0.8 c0.16 0.56 0.4 1.08 0.6 1.64 c0.36 0.56 0.6 1.2 0.88 1.8 c0.24 0.56 0.52 1.08 0.84 1.6 c0.24 0.4 0.36 0.84 0.6 1.2 c0.08 0.12 0.12 0.24 0.16 0.4 c0.16 0.48 0.28 0.96 0.44 1.48 c0.08 0.12 0.08 0.24 0.12 0.36 c0.08 0.88 0.4 1.68 0.84 2.4 c0.16 0.32 0.32 0.64 0.52 0.96 c0 0.04 0.08 0.08 0.08 0.04 c0.04 0 0.08 -0.04 0.08 -0.08 c0.12 -0.36 0.24 -0.72 0.32 -1.08 c0.08 -0.32 0.16 -0.64 0.24 -0.92 c0.16 -0.52 0.32 -1.04 0.44 -1.56 c0.12 -0.76 0.32 -1.48 0.6 -2.2 c0.28 -0.68 0.4 -1.4 0.48 -2.12 c0.04 -0.28 0.08 -0.56 0.16 -0.84 c0.16 -0.64 0.28 -1.28 0.52 -1.88 c0.24 -0.56 0.32 -1.16 0.4 -1.76 c0.04 -0.12 0.04 -0.24 0.08 -0.36 c0.04 -0.2 0.16 -0.32 0.36 -0.28 c0.64 0 1.32 0.04 1.96 0.08 c0.16 0 0.36 0 0.52 0.04 c0.16 0 0.32 0.04 0.48 0.08 c0.12 0.04 0.24 0.12 0.28 0.24 c0.12 0.28 0.16 0.56 0.16 0.88 c0.04 0.28 0.04 0.56 0.08 0.88 c0.12 0.84 0.16 1.68 0.16 2.52 l0 3.2 c0.08 5.88 0.04 11.76 0.04 17.68 l0 0.92 c0 0.12 0 0.24 -0.04 0.36 c0 0.04 -0.08 0.12 -0.12 0.12 c-0.68 0.16 -1.32 0.24 -2 0.2 l-0.08 0 c-0.68 -0.16 -0.76 -0.12 -0.76 -0.84 l0 -2.84 l0 -12.28 c0 -0.56 0 -1.12 -0.04 -1.76 z M96.35000000000001 34.28 c0 -1.44 -0.04 -2.88 0 -4.28 c0 -0.4 -0.04 -0.8 -0.2 -1.16 c-0.04 -0.12 -0.08 -0.28 -0.08 -0.44 c-0.08 -0.68 -0.28 -1.28 -0.44 -1.92 c-0.04 -0.16 -0.12 -0.32 -0.16 -0.44 c-0.2 -0.36 -0.36 -0.72 -0.52 -1.04 c-0.44 -0.88 -0.76 -1.76 -1.04 -2.68 c-0.2 -0.76 -0.48 -1.48 -0.84 -2.16 c-0.4 -0.84 -0.72 -1.76 -0.96 -2.68 c-0.08 -0.4 -0.2 -0.76 -0.36 -1.12 c-0.2 -0.48 -0.36 -0.96 -0.52 -1.44 c-0.08 -0.16 -0.12 -0.32 -0.28 -0.4 s-0.24 -0.2 -0.24 -0.36 c-0.04 -0.12 -0.04 -0.24 -0.04 -0.36 c0 -0.36 -0.04 -0.68 -0.2 -1 c-0.04 -0.12 -0.04 -0.28 0.04 -0.4 c0.08 -0.16 0.12 -0.32 0.12 -0.52 c0 -0.12 0 -0.28 0.04 -0.4 c0 -0.2 0.08 -0.28 0.28 -0.32 c0.12 -0.04 0.24 -0.04 0.4 -0.12 c0.16 -0.04 0.32 -0.08 0.52 -0.08 l1.08 0 c0.04 0 0.04 -0.04 0.08 -0.04 c0.64 0.08 0.72 0.16 0.8 0.72 c0.04 0.24 0.04 0.48 0.04 0.76 c0 0.2 0.04 0.4 0.12 0.6 c0.2 0.52 0.36 1.12 0.64 1.64 c0.08 0.16 0.12 0.32 0.16 0.52 c0.12 0.28 0.2 0.6 0.32 0.88 c0.12 0.32 0.24 0.6 0.28 0.92 c0.04 0.52 0.24 1 0.48 1.48 c0.48 0.84 0.8 1.76 1.12 2.72 c0.04 0.2 0.08 0.4 0.16 0.6 c0.12 0.56 0.32 1.08 0.56 1.56 c0.04 0.08 0.04 0.08 0.08 0.12 c0.04 0.08 0.12 0.04 0.16 0 c0.28 -0.4 0.44 -0.88 0.56 -1.36 c0.08 -0.16 0.08 -0.32 0.12 -0.48 c0.12 -0.4 0.2 -0.8 0.4 -1.16 c0.04 -0.08 0.04 -0.16 0.08 -0.28 c0.16 -0.56 0.4 -1.08 0.68 -1.6 c0.32 -0.56 0.52 -1.12 0.6 -1.72 c0.04 -0.28 0.12 -0.56 0.24 -0.8 l0.12 -0.24 c0.2 -0.8 0.56 -1.52 0.84 -2.32 c0.16 -0.44 0.32 -0.88 0.28 -1.36 c0 -0.2 0.04 -0.44 0.08 -0.64 c0.04 -0.36 0.2 -0.48 0.56 -0.52 l0.28 0 l0.96 0 c0.24 0 0.48 0.04 0.72 0.12 c0.6 0.16 0.6 0.08 0.64 0.76 c0 0.12 0 0.28 0.04 0.4 c0.24 0.24 0.12 0.48 0.04 0.76 c-0.08 0.2 -0.12 0.4 -0.12 0.6 l0 0.4 c0 0.24 -0.08 0.44 -0.32 0.56 c-0.12 0.08 -0.16 0.16 -0.2 0.28 c-0.16 0.52 -0.36 1.04 -0.56 1.52 c-0.16 0.4 -0.28 0.76 -0.4 1.16 c-0.2 0.96 -0.56 1.84 -0.96 2.68 c-0.32 0.68 -0.6 1.36 -0.76 2.04 c-0.36 1.16 -0.8 2.28 -1.36 3.36 c-0.24 0.44 -0.44 0.92 -0.56 1.44 c-0.12 0.6 -0.2 1.2 -0.36 1.8 c-0.04 0.24 -0.04 0.48 -0.04 0.68 l0 2.12 l0 7.24 c0 0.64 0.04 0.6 -0.6 0.72 c-0.56 0.08 -1.16 0.08 -1.72 0.08 c-0.2 0 -0.4 -0.08 -0.6 -0.12 c-0.12 -0.04 -0.24 -0.16 -0.24 -0.28 c-0.04 -0.16 -0.04 -0.32 -0.04 -0.48 c0 -1.32 0 -2.6 -0.04 -3.92 l0 -0.6 l0.04 0 z M111.756 21.2 c0.4 0.56 0.84 1.08 1.32 1.6 c0.36 0.44 0.8 0.72 1.28 0.96 c0.36 0.12 0.68 0.28 1 0.44 c0.56 0.36 1.04 0.72 1.48 1.16 c0.4 0.4 0.8 0.84 1.24 1.16 c0.12 0.12 0.2 0.24 0.36 0.36 l0.32 0 c0.12 0.04 0.2 0.08 0.28 0.16 c0.28 0.28 0.48 0.6 0.56 1 c0.04 0.32 0.12 0.64 0.24 0.96 c0.12 0.4 0.16 0.84 0.2 1.28 l0 1.16 c0 0.2 0 0.44 0.12 0.64 c0.04 0.08 0.04 0.2 0.04 0.32 c0.04 0.24 0.04 0.48 0.08 0.68 c0.08 0.56 0.08 1.08 -0.04 1.64 c-0.04 0.08 -0.04 0.2 -0.04 0.32 c-0.04 0.08 -0.04 0.2 -0.08 0.32 c-0.16 0.4 -0.24 0.84 -0.4 1.28 c0 0.04 -0.04 0.12 -0.08 0.16 c-0.2 0.28 -0.36 0.6 -0.56 0.88 c-0.08 0.12 -0.16 0.24 -0.28 0.36 c-0.32 0.08 -0.64 0.2 -0.96 0.4 c-0.08 0.08 -0.2 0.12 -0.36 0.12 c-0.12 0 -0.28 0.04 -0.44 0.04 c-0.24 0.04 -0.4 0.12 -0.56 0.32 s-0.36 0.28 -0.6 0.32 l-0.2 0 c-0.24 0.04 -0.52 0.12 -0.76 0.12 c-0.28 0 -0.52 -0.08 -0.76 -0.12 l-0.4 0 c-0.24 0 -0.48 -0.04 -0.68 -0.16 c-0.36 -0.16 -0.76 -0.28 -1.12 -0.36 c-0.28 -0.08 -0.52 -0.2 -0.76 -0.36 s-0.48 -0.32 -0.72 -0.44 c-0.6 -0.32 -1 -0.88 -1.36 -1.48 c-0.04 -0.2 -0.12 -0.4 -0.12 -0.6 c-0.04 -0.4 -0.16 -0.76 -0.2 -1.16 c-0.12 -0.6 -0.24 -1.2 -0.2 -1.8 c0.04 -0.2 0.04 -0.4 0.08 -0.6 c0.04 -0.28 0.08 -0.56 0.08 -0.84 c0 -0.16 0 -0.32 0.04 -0.48 c0.12 -0.28 0.08 -0.52 0.04 -0.76 c-0.08 -0.24 -0.12 -0.44 -0.2 -0.68 c0.08 -0.2 0.16 -0.4 0.24 -0.64 c0.04 -0.12 0.16 -0.2 0.28 -0.2 l0.48 0 c0.44 -0.04 0.92 -0.04 1.36 -0.04 c0.2 0 0.32 0.08 0.44 0.2 c0.08 0.08 0.12 0.16 0.12 0.24 c-0.04 0.24 0 0.44 0.2 0.6 c0.08 0.08 0.12 0.2 0.08 0.36 c-0.04 0.08 -0.08 0.2 -0.12 0.32 c-0.08 0.2 -0.12 0.44 -0.08 0.68 c0.08 0.24 0.04 0.52 0.08 0.76 c0 0.28 -0.04 0.52 0.08 0.8 c0.04 0.12 0.04 0.24 0 0.36 c-0.12 0.36 -0.08 0.68 -0.04 1.04 c0 0.16 0.08 0.32 0.24 0.44 c0.36 0.32 0.72 0.6 1.2 0.76 c0.12 0.04 0.28 0.12 0.4 0.16 c0.2 0.08 0.4 0.12 0.64 0.12 c0.16 0 0.36 0 0.52 0.08 c0.56 0.12 1.08 0.04 1.6 -0.16 c0.2 -0.04 0.4 -0.16 0.6 -0.24 c0.16 -0.44 0.32 -0.84 0.28 -1.32 l0 -2.84 l0 -0.4 c0 -0.28 -0.08 -0.52 -0.36 -0.64 c-0.08 -0.08 -0.16 -0.16 -0.2 -0.28 c-0.08 -0.36 -0.32 -0.64 -0.6 -0.88 c-0.52 -0.48 -1 -0.96 -1.52 -1.44 c-0.12 -0.08 -0.2 -0.2 -0.36 -0.24 c-0.16 0 -0.36 -0.08 -0.48 -0.16 c-0.28 -0.16 -0.56 -0.24 -0.88 -0.32 c-0.8 -0.2 -1.52 -0.56 -2.12 -1.12 c-0.52 -0.48 -0.84 -1.04 -1.16 -1.56 c-0.16 -0.24 -0.28 -0.52 -0.4 -0.76 c-0.2 -0.36 -0.24 -0.8 -0.36 -1.16 c-0.04 -0.08 0 -0.16 0 -0.2 c0.08 -0.28 0.12 -0.52 -0.04 -0.76 c-0.04 -0.48 -0.16 -0.92 -0.12 -1.4 c0.04 -0.44 0.08 -0.88 0.04 -1.32 l0 -0.16 c0.12 -0.32 0.12 -0.6 0.12 -0.92 l0 -1.88 c-0.04 -0.4 0.08 -0.76 0.32 -1.08 c0.08 -0.12 0.12 -0.2 0.2 -0.28 c0.28 -0.36 0.6 -0.76 0.92 -1.12 c0.04 -0.08 0.12 -0.12 0.24 -0.2 c0.36 -0.16 0.64 -0.4 0.96 -0.64 c0.24 -0.2 0.52 -0.36 0.84 -0.48 c0.28 -0.08 0.52 -0.24 0.8 -0.24 c0.12 0 0.24 -0.04 0.4 -0.04 c0.32 0 0.64 -0.04 0.96 -0.08 c0.2 -0.04 0.44 0 0.64 0.04 c0.36 0.04 0.68 0.08 1.04 0.08 c0.24 0.04 0.52 0.04 0.76 0.12 c0.2 0.04 0.4 0.16 0.6 0.28 c0.32 0.2 0.56 0.52 0.76 0.84 c0.16 0.24 0.28 0.48 0.48 0.68 c0.12 0.16 0.24 0.32 0.28 0.52 c0.04 0.12 0.08 0.24 0.16 0.36 c0.12 0.36 0.24 0.72 0.28 1.12 c0.04 0.16 0.08 0.32 0.08 0.44 c0.04 0.32 0.16 0.6 0.4 0.8 c0.12 0.08 0.12 0.16 0.12 0.28 c0 0.48 0 0.96 -0.04 1.44 c-0.08 0.36 -0.08 0.72 -0.08 1.08 c0 0.52 -0.04 1 -0.16 1.48 c-0.04 0.2 -0.04 0.36 0 0.52 c0.04 0.12 0.04 0.2 0.04 0.32 c0 0.08 0 0.12 -0.04 0.2 c-0.16 0.16 -0.32 0.28 -0.52 0.36 c-0.44 0.12 -0.88 0.2 -1.36 0.28 c-0.04 0.04 -0.12 0 -0.16 -0.04 c-0.12 -0.12 -0.28 -0.28 -0.4 -0.44 c0 -0.04 -0.04 -0.12 -0.04 -0.16 c-0.04 -0.28 -0.08 -0.52 -0.08 -0.8 c0.04 -0.36 0 -0.72 0 -1.08 c0 -0.28 0.04 -0.56 -0.04 -0.84 c-0.04 -0.04 -0.04 -0.08 -0.04 -0.12 c0.08 -0.72 -0.12 -1.44 -0.28 -2.12 c0 -0.04 0 -0.08 -0.04 -0.12 c-0.2 -0.36 -0.36 -0.8 -0.68 -1.12 c-0.2 -0.24 -0.44 -0.48 -0.68 -0.68 c-0.28 -0.24 -0.6 -0.36 -0.88 -0.52 l-0.2 0 c-0.44 0 -0.84 0.16 -1.24 0.36 c-0.08 0.04 -0.12 0.12 -0.2 0.16 l-0.56 0.56 s-0.4 0.4 -0.44 0.68 c0 0.12 -0.04 0.2 -0.04 0.28 c-0.04 0.08 -0.08 0.2 -0.04 0.32 c0.04 0.32 -0.16 0.68 -0.12 1 l0 2.88 c0 0.16 0.04 0.32 0.04 0.52 z M128.122 26.4 c0.04 -2.96 0.04 -5.92 0.04 -8.88 c0 -0.52 0.04 -1.08 0.08 -1.6 c0 -0.28 -0.04 -0.56 -0.04 -0.8 c0 -0.04 -0.04 -0.08 -0.08 -0.08 c-0.16 -0.04 -0.32 -0.04 -0.44 -0.04 l-4.44 0 l-0.72 0 c-0.12 0 -0.24 -0.04 -0.32 -0.08 c-0.08 0 -0.16 -0.08 -0.2 -0.16 c0 -0.16 -0.04 -0.28 -0.08 -0.44 c-0.24 -0.68 -0.24 -1.36 -0.16 -2.08 c0.04 -0.16 0.12 -0.32 0.16 -0.48 c0.04 -0.08 0.12 -0.16 0.2 -0.16 c0.08 -0.04 0.16 -0.04 0.24 -0.04 l0.52 0 l12.6 0 l1 0 c0.12 0 0.2 0 0.32 0.04 c0.12 0 0.2 0.04 0.24 0.16 c0.2 0.96 0.28 1.92 0.04 2.84 c-0.08 0.2 -0.2 0.32 -0.36 0.36 c-0.24 0 -0.44 0.04 -0.64 0.04 l-3.88 0 l-0.6 0 c-0.08 0.04 -0.16 0.12 -0.16 0.2 l0 0.24 c0.08 0.4 0.04 0.8 0.04 1.16 l0 19.08 c0 0.4 -0.04 0.8 -0.04 1.2 l0 1.08 l0 0.68 c-0.04 0.12 -0.12 0.24 -0.24 0.28 c-0.6 0.08 -1.2 0.16 -1.84 0.16 c-0.28 -0.04 -0.56 -0.08 -0.8 -0.16 c-0.16 -0.04 -0.24 -0.16 -0.24 -0.32 c-0.04 -0.44 -0.08 -0.88 -0.08 -1.36 c-0.08 -1.48 -0.08 -2.96 -0.08 -4.44 l0 -2.68 l0 -2 l0 -1.72 l-0.04 0 z M144.40800000000002 39.72 l-0.36 -0.12 s-0.24 -0.04 -0.32 0 s-0.2 0.04 -0.28 0.04 c-0.6 -0.08 -1.32 -0.24 -1.8 -0.8 c-0.04 0 -0.08 -0.04 -0.12 -0.08 c-0.64 -0.4 -1.04 -1 -1.6 -1.52 c-0.2 -0.16 -0.32 -0.36 -0.44 -0.56 c-0.08 -0.16 -0.16 -0.36 -0.2 -0.52 c-0.12 -0.28 -0.2 -0.56 -0.2 -0.84 c0.04 -0.2 -0.04 -0.4 -0.08 -0.6 c-0.08 -0.28 -0.12 -0.56 -0.2 -0.84 c-0.2 -0.68 -0.28 -1.36 -0.44 -2.04 c-0.08 -0.36 -0.08 -0.72 -0.08 -1.08 c0 -1.24 -0.04 -2.48 -0.04 -3.72 s0.04 -2.48 0.04 -3.76 l0 -1.8 c0.04 -0.28 0 -0.56 -0.16 -0.8 c-0.04 -0.08 -0.04 -0.2 -0.04 -0.32 c0.04 -0.08 0.04 -0.12 0.04 -0.2 c0.08 -0.44 0.08 -0.88 -0.04 -1.32 c-0.04 -0.2 -0.04 -0.4 0 -0.6 c0.08 -0.36 0.12 -0.68 0 -1 l0 -0.28 c0.04 -0.12 0.04 -0.2 0.08 -0.32 c0.12 -0.28 0.16 -0.6 0.16 -0.92 c0 -0.24 0.04 -0.48 0.16 -0.72 c0.2 -0.48 0.52 -0.88 0.72 -1.36 c0.04 -0.08 0.08 -0.16 0.16 -0.2 c0.4 -0.44 0.8 -0.88 1.28 -1.2 c0.32 -0.2 0.6 -0.44 0.92 -0.68 c0.16 -0.16 0.36 -0.24 0.6 -0.28 c0.32 -0.08 0.6 -0.12 0.92 -0.2 c0.16 -0.08 0.32 -0.08 0.44 -0.08 c0.16 -0.04 0.32 -0.04 0.48 -0.08 c0.12 -0.04 0.28 -0.04 0.4 0.04 c0.04 0.04 0.12 0.04 0.16 0.08 c0.2 0.12 0.44 0.16 0.68 0.16 l0.4 0 s0.28 0.04 0.4 0.16 c0.04 0.04 0.08 0.08 0.12 0.08 c0.12 0.16 0.28 0.24 0.44 0.28 c0.44 0.16 0.72 0.44 1 0.8 c0.16 0.24 0.36 0.52 0.6 0.72 c0.08 0.08 0.16 0.2 0.2 0.32 c0.12 0.28 0.24 0.52 0.32 0.84 c0.04 0.2 0.16 0.4 0.24 0.6 c0.12 0.24 0.2 0.52 0.24 0.76 c0 0.36 0.08 0.72 0.16 1.08 c0.08 0.32 0.12 0.68 0.12 1 c-0.04 0.32 0 0.64 0.12 0.92 c0.04 0.12 0.04 0.24 0.04 0.32 c0.04 0.2 0.04 0.4 -0.08 0.52 c-0.08 0.12 -0.08 0.28 -0.08 0.4 l0 0.72 l0 13.24 c0.04 0.6 -0.12 1.2 -0.36 1.76 l-0.84 1.92 c-0.08 0.12 -0.16 0.2 -0.24 0.32 c-0.36 0.52 -0.92 0.84 -1.4 1.2 c-0.2 0.16 -0.4 0.24 -0.64 0.28 c-0.12 0 -0.28 0.04 -0.4 0.04 c-0.4 0 -0.8 0.12 -1.2 0.24 z M141.40800000000002 26.52 l0 4.48 l0 0.68 c0 0.12 0 0.24 0.04 0.32 c0.16 0.28 0.2 0.56 0.24 0.84 c0.04 0.12 0.08 0.28 0.12 0.4 c0.16 0.4 0.32 0.76 0.48 1.16 c0.08 0.16 0.16 0.36 0.24 0.48 c0.28 0.32 0.56 0.64 0.8 0.92 c0.32 0.36 0.76 0.48 1.24 0.44 c0.36 -0.04 0.64 -0.16 0.8 -0.52 c0.04 -0.08 0.04 -0.16 0.08 -0.24 c0 -0.36 0.12 -0.72 0.24 -1.08 c0.08 -0.28 0.16 -0.56 0.16 -0.84 c0 -0.2 0.08 -0.4 0.12 -0.6 c0.24 -0.56 0.32 -1.16 0.36 -1.76 c0 -0.44 0 -0.84 0.04 -1.28 c0 -0.16 0 -0.32 -0.08 -0.48 c-0.04 -0.08 -0.04 -0.2 0 -0.32 c0.12 -0.52 0.08 -1.04 0.04 -1.56 c-0.08 -0.76 -0.04 -1.56 -0.04 -2.32 c0 -1.48 0.04 -2.92 0.04 -4.4 c0.04 -0.24 0.04 -0.44 -0.04 -0.68 c-0.04 -0.08 -0.04 -0.2 -0.04 -0.32 c-0.04 -0.56 -0.12 -1.12 -0.24 -1.68 s-0.24 -1.12 -0.24 -1.72 c0 -0.28 -0.12 -0.56 -0.24 -0.84 c-0.08 -0.16 -0.2 -0.28 -0.28 -0.44 c-0.08 -0.2 -0.24 -0.32 -0.44 -0.4 c-0.08 -0.08 -0.2 -0.12 -0.28 -0.16 c-0.6 -0.2 -1.12 -0.16 -1.6 0.24 c-0.28 0.24 -0.52 0.48 -0.76 0.76 c-0.16 0.12 -0.24 0.32 -0.28 0.52 c-0.08 0.4 -0.16 0.84 -0.24 1.24 l0 0.2 c0 0.2 -0.04 0.4 0 0.6 c0 0.24 -0.16 0.44 -0.2 0.68 l0 0.04 c-0.04 0.52 -0.12 1.04 -0.16 1.56 c-0.04 0.36 -0.04 0.76 0.04 1.12 c0.04 0.12 0.04 0.24 0.04 0.36 c0 1.56 -0.04 3.16 0.04 4.6 z M160.13400000000001 36.04 c0.08 -0.12 0.2 -0.24 0.28 -0.32 c0.16 -0.2 0.24 -0.4 0.28 -0.6 c0.04 -0.84 0.08 -1.64 0.08 -2.44 s0 -1.56 0.04 -2.36 c0 -0.44 0.08 -0.88 0.12 -1.32 c0 -0.12 0 -0.24 0.04 -0.36 c0.28 -0.96 0.32 -0.92 1.32 -1.12 l0.36 0 c0.2 0.04 0.44 0.08 0.64 0.08 s0.4 -0.04 0.56 -0.08 c0.12 0 0.28 0.08 0.32 0.2 c0.16 0.52 0.32 1 0.28 1.56 c-0.04 0.36 0 0.76 0 1.12 c0 1.16 -0.08 2.28 -0.2 3.44 c-0.04 0.16 -0.08 0.36 -0.08 0.52 c0 0.72 -0.2 1.4 -0.4 2.08 l-0.24 0.84 c-0.24 0.2 -0.44 0.4 -0.64 0.6 c-0.2 0.16 -0.36 0.36 -0.52 0.56 c-0.12 0.16 -0.24 0.32 -0.48 0.4 c-0.16 0.04 -0.28 0.2 -0.44 0.28 c-0.2 0.12 -0.44 0.2 -0.68 0.2 c-0.44 -0.04 -0.88 -0.04 -1.32 -0.04 c-0.12 0 -0.2 0 -0.32 -0.04 c-0.4 -0.08 -0.84 -0.12 -1.28 -0.12 c-0.12 0 -0.24 -0.04 -0.36 -0.08 c-0.28 -0.04 -0.52 -0.16 -0.8 -0.2 c-0.24 -0.04 -0.44 -0.08 -0.64 -0.28 c-0.08 -0.08 -0.2 -0.12 -0.32 -0.2 c-0.16 -0.08 -0.36 -0.16 -0.52 -0.2 c-0.16 -0.08 -0.28 -0.16 -0.36 -0.28 c-0.2 -0.32 -0.48 -0.56 -0.72 -0.76 c-0.12 -0.16 -0.12 -0.32 -0.12 -0.44 c-0.04 -0.28 -0.12 -0.52 -0.24 -0.8 c-0.16 -0.36 -0.28 -0.72 -0.4 -1.08 c-0.28 -0.8 -0.44 -1.64 -0.4 -2.52 l0 -4.36 c0 -0.52 -0.04 -1.08 -0.04 -1.6 c0 -0.8 0 -1.56 0.08 -2.36 c0.04 -0.56 0.08 -1.16 -0.04 -1.76 l0 -0.44 c0.08 -0.8 0.08 -1.6 0.2 -2.4 c0.08 -0.36 0.12 -0.72 0.2 -1.08 c0.12 -0.32 0.16 -0.64 0.2 -0.96 c0.04 -0.44 0.12 -0.84 0.24 -1.28 c0.08 -0.36 0.16 -0.72 0.16 -1.08 c0.04 -0.24 0.12 -0.48 0.28 -0.68 c0.16 -0.24 0.32 -0.44 0.4 -0.68 c0.04 -0.08 0.12 -0.16 0.2 -0.24 c0.4 -0.32 0.84 -0.64 1.28 -0.96 c0.08 -0.04 0.16 -0.08 0.2 -0.08 c0.32 0 0.6 -0.12 0.88 -0.12 c0.72 -0.08 1.44 -0.24 2.2 -0.24 c0.44 -0.08 0.88 0.08 1.32 0.08 c0.04 0 0.08 0.04 0.12 0.04 c0.28 0.2 0.6 0.28 0.88 0.4 c0.32 0.2 0.64 0.36 0.84 0.72 c0.08 0.16 0.24 0.28 0.4 0.4 s0.28 0.28 0.32 0.48 c0.04 0.28 0.16 0.52 0.32 0.72 c0.16 0.32 0.28 0.64 0.32 1 c0.04 0.48 0.16 0.96 0.12 1.44 c0 0.12 0.04 0.24 0.08 0.36 l0 0.24 c-0.16 0.48 -0.04 1 -0.08 1.52 c-0.04 0.88 -0.04 1.76 -0.08 2.64 c0 0.56 -0.12 1.12 -0.24 1.68 c-0.04 0.12 -0.08 0.2 -0.12 0.32 c-0.08 0.12 -0.12 0.16 -0.24 0.2 c-0.44 0.08 -0.84 0.16 -1.32 0.08 c-0.36 -0.04 -0.76 -0.04 -1.16 -0.16 c-0.16 -0.08 -0.24 -0.16 -0.28 -0.4 c0 -0.12 0 -0.24 0.04 -0.36 c0 -0.28 0.04 -0.52 0.08 -0.8 c0.12 -0.84 0.2 -1.64 0.2 -2.48 l0 -2.56 c0 -0.72 -0.2 -1.32 -0.56 -1.88 c-0.2 -0.32 -0.52 -0.52 -0.92 -0.52 c-0.52 0 -1.08 0.04 -1.6 0.16 c-0.08 0 -0.2 0.04 -0.28 0.12 c-0.28 0.28 -0.56 0.6 -0.68 1 c-0.12 0.48 -0.28 0.96 -0.24 1.44 c0 0.04 0 0.12 -0.04 0.16 c-0.16 0.68 -0.24 1.36 -0.32 2.04 c-0.04 0.32 -0.12 0.68 -0.12 1 l0 0.68 c-0.04 0.24 -0.08 0.52 0 0.8 l0 0.44 c-0.04 0.32 -0.08 0.68 -0.08 1 c0 0.52 -0.04 1 -0.12 1.48 c-0.04 0.12 -0.04 0.24 0 0.36 c0.08 0.4 0.08 0.84 0 1.24 c0 0.16 0 0.32 0.04 0.52 c0 0.28 0.04 0.56 0.04 0.88 c0 0.36 0 0.72 -0.04 1.08 c0 0.32 0 0.64 -0.04 0.96 l0 0.36 c0.04 0.48 0.04 0.96 0.04 1.4 c0.04 0.64 0.12 1.28 0.4 1.88 c0.12 0.32 0.24 0.68 0.4 1 c0.08 0.24 0.24 0.36 0.44 0.48 c0.44 0.28 0.96 0.36 1.48 0.4 c0.44 0.04 0.92 0.08 1.4 0.04 z M172.7 28.439999999999998 c-0.12 0.12 -0.2 0.32 -0.28 0.48 c-0.16 0.16 -0.32 0.28 -0.56 0.28 s-0.44 0 -0.68 0.04 c-0.04 0.08 -0.08 0.16 -0.08 0.24 l0 0.84 l0 9.04 c0 0.32 -0.04 0.6 -0.04 0.92 c0 0.08 -0.12 0.2 -0.2 0.2 c-0.88 0.16 -1.76 0.24 -2.56 0.2 c-0.24 -0.04 -0.48 -0.12 -0.68 -0.2 c-0.24 -0.28 -0.28 -0.6 -0.28 -0.88 c0 -0.6 -0.04 -1.24 -0.04 -1.84 l0 -9.64 l0 -10.12 c0.04 -0.92 0.08 -1.88 0.08 -2.8 c0.04 -0.96 0.08 -1.88 0.12 -2.84 c0 -0.64 0.08 -1.28 0.16 -1.88 c0 -0.24 0.12 -0.36 0.36 -0.4 c0.2 -0.04 0.36 -0.12 0.56 -0.16 c0.64 -0.2 1.32 -0.12 1.96 0.08 c0.08 0.04 0.16 0.12 0.2 0.24 c0 0.08 0.04 0.16 0.04 0.24 c0.08 0.84 0.16 1.64 0.16 2.48 c0 0.68 0.04 1.36 0.12 2.08 c0.04 0.24 0.04 0.52 0.04 0.8 l0 8.08 c0 0.24 0 0.48 0.04 0.72 c0 0.04 0.04 0.08 0.08 0.12 c0.04 0 0.08 -0.04 0.08 -0.04 c0.08 -0.08 0.16 -0.16 0.2 -0.28 c0.68 -1 1.32 -2.04 1.84 -3.12 c0.24 -0.48 0.44 -0.96 0.6 -1.48 c0.2 -0.44 0.4 -0.88 0.52 -1.4 c0.04 -0.12 0.16 -0.28 0.24 -0.4 c0.48 -0.64 0.84 -1.32 1.4 -1.88 c0.16 -0.2 0.28 -0.48 0.4 -0.72 c0.08 -0.08 0.08 -0.2 0.12 -0.32 c0 -0.12 0 -0.28 0.04 -0.4 c0.12 -0.2 0.24 -0.36 0.4 -0.52 c0.28 -0.24 0.52 -0.52 0.6 -0.88 c0 -0.04 0.04 -0.08 0.08 -0.16 c0.08 -0.12 0.16 -0.2 0.32 -0.2 c0.28 0 0.56 -0.08 0.8 -0.2 c0.08 -0.04 0.16 -0.08 0.2 -0.08 c0.2 0 0.24 0.16 0.36 0.24 c0.2 0.16 0.4 0.32 0.64 0.36 s0.44 0.2 0.64 0.32 c0.16 0.4 0.28 0.8 0.44 1.16 c0.16 0.28 0.08 0.48 -0.08 0.68 c-0.08 0.12 -0.2 0.2 -0.28 0.32 s-0.2 0.2 -0.28 0.32 c-0.12 0.12 -0.2 0.24 -0.24 0.44 c-0.08 0.36 -0.24 0.72 -0.44 1.04 c-0.12 0.16 -0.2 0.32 -0.28 0.52 c-0.12 0.32 -0.32 0.56 -0.6 0.76 c-0.48 0.32 -0.8 0.76 -1.08 1.24 c-0.08 0.24 -0.2 0.44 -0.28 0.68 c-0.4 0.76 -0.76 1.56 -1.12 2.32 c-0.24 0.56 -0.6 1.08 -0.92 1.56 c-0.12 0.16 -0.12 0.32 -0.04 0.48 c0.28 0.72 0.68 1.4 1.08 2.04 c0.64 0.96 1.12 1.96 1.64 3 c0.32 0.64 0.68 1.24 1 1.88 c0.24 0.44 0.48 0.88 0.68 1.32 c0.4 0.84 0.92 1.6 1.6 2.24 c0.2 0.2 0.4 0.44 0.48 0.76 c0.08 0.16 0.2 0.32 0.36 0.44 c0.08 0.08 0.16 0.2 0.2 0.32 c0.16 0.4 0.32 0.72 0.56 1.04 c0.16 0.24 0.2 0.52 0.16 0.8 c0 0.08 -0.04 0.16 -0.08 0.2 c-0.32 0.24 -0.4 0.6 -0.52 0.92 c-0.52 0.24 -1 0.44 -1.52 0.64 c-0.36 0.12 -0.72 0.12 -1.04 -0.08 c-0.24 -0.2 -0.48 -0.4 -0.6 -0.68 c-0.12 -0.36 -0.28 -0.68 -0.48 -0.96 c-0.24 -0.52 -0.56 -0.96 -0.88 -1.4 c-0.68 -0.88 -1.2 -1.8 -1.72 -2.76 c-0.32 -0.68 -0.68 -1.32 -1.04 -1.96 c-0.36 -0.72 -0.72 -1.44 -1.12 -2.16 c-0.24 -0.48 -0.48 -1.04 -0.92 -1.44 c-0.16 -0.16 -0.28 -0.44 -0.4 -0.64 c-0.04 -0.08 -0.08 -0.12 -0.16 -0.2 l-0.08 0 z"
    ></path>
  </g>
</svg>
